<svg xmlns="http://www.w3.org/2000/svg" xml:space="preserve" style="fill-rule:evenodd;clip-rule:evenodd;stroke-linecap:round" viewBox="0 0 32 32"><path d="M16 29.99a5.65 5.65 0 1 0-.001-11.301A5.65 5.65 0 0 0 16 29.99Z" style="fill:url(#a);fill-rule:nonzero" transform="translate(0 1)"/><path d="M19.724 6h-8.411C8.743 6 7 8.438 7 10.69v11.78h18V10.69C25 8.1 22.638 6 19.724 6Z" style="fill:url(#b);fill-rule:nonzero" transform="translate(0 1)"/><path d="M19.724 6h-8.411C8.743 6 7 8.438 7 10.69v11.78h18V10.69C25 8.1 22.638 6 19.724 6Z" style="fill:url(#c);fill-rule:nonzero" transform="translate(0 1)"/><path d="M19.724 6h-8.411C8.743 6 7 8.438 7 10.69v11.78h18V10.69C25 8.1 22.638 6 19.724 6Z" style="fill:url(#d);fill-rule:nonzero" transform="translate(0 1)"/><path d="M19.724 6h-8.411C8.743 6 7 8.438 7 10.69v11.78h18V10.69C25 8.1 22.638 6 19.724 6Z" style="fill:url(#e);fill-rule:nonzero" transform="translate(0 1)"/><path d="M22.3 10h2.65c-.33-2.26-2.28-4-4.64-4H16l2.38 2.38A5.54 5.54 0 0 0 22.3 10Z" style="fill:url(#f);fill-rule:nonzero" transform="translate(0 1)"/><path d="M16 18.46v-4.51c0-3.276-3.77-7.495-6.52-7.495C8.363 6.994 7 8.502 7 10.51V20l9-1.54Z" style="fill:url(#g);fill-rule:nonzero" transform="translate(0 1)"/><path d="M16 18.46v-4.51c0-3.276-3.77-7.495-6.52-7.495C8.363 6.994 7 8.502 7 10.51V20l9-1.54Z" style="fill:url(#h);fill-rule:nonzero" transform="translate(0 1)"/><path d="M26 22.421c-.04-3.01-2.53-5.43-5.52-5.42h-8.87c-3.03-.06-5.57 2.39-5.61 5.42a5.502 5.502 0 0 0 5.5 5.58h9c3.06 0 5.54-2.5 5.5-5.58Z" style="fill:url(#i);fill-rule:nonzero" transform="translate(0 1)"/><path d="M26 22.421c-.04-3.01-2.53-5.43-5.52-5.42h-8.87c-3.03-.06-5.57 2.39-5.61 5.42a5.502 5.502 0 0 0 5.5 5.58h9c3.06 0 5.54-2.5 5.5-5.58Z" style="fill:url(#j);fill-rule:nonzero" transform="translate(0 1)"/><path d="M26 22.421c-.04-3.01-2.53-5.43-5.52-5.42h-8.87c-3.03-.06-5.57 2.39-5.61 5.42a5.502 5.502 0 0 0 5.5 5.58h9c3.06 0 5.54-2.5 5.5-5.58Z" style="fill:url(#k);fill-rule:nonzero" transform="translate(0 1)"/><path d="M26 22.421c-.04-3.01-2.53-5.43-5.52-5.42h-8.87c-3.03-.06-5.57 2.39-5.61 5.42a5.502 5.502 0 0 0 5.5 5.58h9c3.06 0 5.54-2.5 5.5-5.58Z" style="fill:url(#l);fill-rule:nonzero" transform="translate(0 1)"/><path d="M13 22a1 1 0 1 0 0-2 1 1 0 0 0 0 2Z" style="fill:url(#m);fill-rule:nonzero" transform="translate(0 1)"/><path d="M19 22a1 1 0 1 0 0-2 1 1 0 0 0 0 2Z" style="fill:url(#n);fill-rule:nonzero" transform="translate(0 1)"/><path d="M12.75 13.983a.828.828 0 0 0-1.655 0v1.034a.828.828 0 1 0 1.655 0v-1.034Z" style="fill:#4e4854" transform="translate(0 1)"/><path d="M12.75 13.75a.75.75 0 0 0-1.5 0v1.5a.75.75 0 0 0 1.5 0v-1.5Z" style="fill:url(#o)" transform="translate(0 1)"/><path d="M12.75 13.75a.75.75 0 0 0-1.5 0v1.5a.75.75 0 0 0 1.5 0v-1.5Z" style="fill:url(#p)" transform="translate(0 1)"/><path d="M12.75 13.75a.75.75 0 0 0-1.5 0v1.5a.75.75 0 0 0 1.5 0v-1.5Z" style="fill:url(#q)" transform="translate(0 1)"/><path d="M20.39 13.828a.673.673 0 0 0-.672-.673.674.674 0 0 0-.673.673v1.344a.673.673 0 0 0 1.345 0v-1.344Z" style="fill:#bbb1bb" transform="translate(0 1)"/><path d="M20.75 13.75a.75.75 0 0 0-1.5 0v1.5a.75.75 0 0 0 1.5 0v-1.5Z" style="fill:url(#r)" transform="translate(0 1)"/><path d="M20.75 13.75a.75.75 0 0 0-1.5 0v1.5a.75.75 0 0 0 1.5 0v-1.5Z" style="fill:url(#s)" transform="translate(0 1)"/><path d="M20.75 13.75a.75.75 0 0 0-1.5 0v1.5a.75.75 0 0 0 1.5 0v-1.5Z" style="fill:url(#t)" transform="translate(0 1)"/><path d="M20.75 13.75a.75.75 0 0 0-1.5 0v1.5a.75.75 0 0 0 1.5 0v-1.5Z" style="fill:url(#u)" transform="translate(0 1)"/><ellipse cx="22.226" cy="21" rx="3.654" ry="2.988" style="fill:url(#v)" transform="rotate(47.966 21.102 21.5)"/><path d="M14.13 6.24a3.982 3.982 0 0 1-.15-3.7c.14-.31-.16-.63-.47-.51-.25.1-.49.22-.72.38a4.012 4.012 0 0 0-1.34 5.18A3.994 3.994 0 0 0 17 9.2c.46-.27.85-.61 1.15-1-1.57.22-3.18-.51-4.02-1.96Z" style="fill:url(#w);fill-rule:nonzero" transform="translate(-9.368 -1.59) scale(1.2925)"/><path d="M14.13 6.24a3.982 3.982 0 0 1-.15-3.7c.14-.31-.16-.63-.47-.51-.25.1-.49.22-.72.38a4.012 4.012 0 0 0-1.34 5.18A3.994 3.994 0 0 0 17 9.2c.46-.27.85-.61 1.15-1-1.57.22-3.18-.51-4.02-1.96Z" style="fill:url(#x);fill-rule:nonzero" transform="translate(-9.368 -1.59) scale(1.2925)"/><path d="M14.13 6.24a3.982 3.982 0 0 1-.15-3.7c.14-.31-.16-.63-.47-.51-.25.1-.49.22-.72.38a4.012 4.012 0 0 0-1.34 5.18A3.994 3.994 0 0 0 17 9.2c.46-.27.85-.61 1.15-1-1.57.22-3.18-.51-4.02-1.96Z" style="fill:url(#y);fill-rule:nonzero" transform="translate(-9.368 -1.59) scale(1.2925)"/><path d="M13.609 2.506c-.458.547-1.165 2.066-.328 3.766" style="fill:none;fill-rule:nonzero;stroke:url(#z);stroke-width:.25px" transform="translate(-9.368 -1.59) scale(1.2925)"/><path d="M18.87 6.24c.68-1.18.69-2.56.15-3.7-.14-.31.16-.63.47-.51.25.1.49.22.72.38a4.012 4.012 0 0 1 1.34 5.18A3.994 3.994 0 0 1 16 9.2c-.46-.27-.85-.61-1.15-1 1.57.22 3.18-.51 4.02-1.96Z" style="fill:url(#A);fill-rule:nonzero" transform="translate(-1.433 -1.59) scale(1.2925)"/><path d="M18.87 6.24c.68-1.18.69-2.56.15-3.7-.14-.31.16-.63.47-.51.25.1.49.22.72.38a4.012 4.012 0 0 1 1.34 5.18A3.994 3.994 0 0 1 16 9.2c-.46-.27-.85-.61-1.15-1 1.57.22 3.18-.51 4.02-1.96Z" style="fill:url(#B);fill-rule:nonzero" transform="translate(-1.433 -1.59) scale(1.2925)"/><path d="M19.766 2.584c.64.297 1.828 2.313 1.312 3.875" style="fill:none;fill-rule:nonzero;stroke:url(#C);stroke-width:.25px" transform="translate(-1.433 -1.59) scale(1.2925)"/><path d="M22 12a6 6 0 1 0-12 0h12Z" style="fill:url(#D)" transform="translate(-13.333 -8) scale(1.83333)"/><path d="M8.013 24.2c0-.147-.023-.267-.051-.267H5.038c-.028 0-.051.12-.051.267v1.6c0 .147.023.267.051.267h2.924c.028 0 .051-.12.051-.267v-1.6ZM8 24.2c0-.11-.017-.2-.038-.2H5.038c-.021 0-.038.09-.038.2v1.6c0 .11.017.2.038.2h2.924c.021 0 .038-.09.038-.2v-1.6Z" style="fill:url(#E)" transform="matrix(7.99998 0 0 1.5 -36 -22)"/><path d="M8 24.2c0-.11-.017-.2-.038-.2H5.038c-.021 0-.038.09-.038.2v1.6c0 .11.017.2.038.2h2.924c.021 0 .038-.09.038-.2v-1.6Z" style="fill:url(#F)" transform="matrix(7.99998 0 0 1.5 -36 -22)"/><circle cx="16" cy="15.5" r="1.5" style="fill:url(#G)" transform="translate(7.167 10.333) scale(.33333)"/><circle cx="16" cy="15.5" r="1.5" style="fill:url(#H)" transform="translate(4.167 10.333) scale(.33333)"/><circle cx="16" cy="15.5" r="1.5" style="fill:url(#I)" transform="translate(1.167 10.333) scale(.33333)"/><circle cx="16" cy="15.5" r="1.5" style="fill:url(#J)" transform="translate(14.167 10.333) scale(.33333)"/><circle cx="16" cy="15.5" r="1.5" style="fill:url(#K)" transform="translate(17.167 10.333) scale(.33333)"/><circle cx="16" cy="15.5" r="1.5" style="fill:url(#L)" transform="translate(20.167 10.333) scale(.33333)"/><path d="M18 14h3v3h-3z" style="fill:url(#M)" transform="matrix(.66667 0 0 1 6 0)"/><path d="M18 14h3v3h-3z" style="fill:url(#N)" transform="matrix(-.66667 0 0 1 26 0)"/><path d="M17.793 17.217 5.011 18.298l1.598.54H13V21l1.598.54 3.195-4.323Z" style="fill:url(#O)" transform="rotate(135.001 11.839 24.445) scale(.44257 1.30828)"/><path d="m14 18 1.8 1.8c.11.11.29.11.4 0L18 18V2.4a.4.4 0 0 0-.4-.4h-3.2a.4.4 0 0 0-.4.4V18Z" style="fill:url(#P)"/><circle cx="16" cy="15.5" r="1.5" style="fill:url(#Q)" transform="translate(10.667 7.333) scale(.33333)"/><circle cx="16" cy="15.5" r="1.5" style="fill:url(#R)" transform="translate(10.667 4.833) scale(.33333)"/><circle cx="16" cy="15.5" r="1.5" style="fill:url(#S)" transform="translate(5.333 5.167) scale(.66667)"/><defs><linearGradient id="b" x1="0" x2="1" y1="0" y2="0" gradientTransform="translate(11.625 18.787) scale(16.75)" gradientUnits="userSpaceOnUse"><stop offset="0" style="stop-color:#d4d1d7;stop-opacity:1"/><stop offset="1" style="stop-color:#fbf6ff;stop-opacity:1"/></linearGradient><linearGradient id="c" x1="0" x2="1" y1="0" y2="0" gradientTransform="matrix(2.75 0 0 2.75 23 18.787)" gradientUnits="userSpaceOnUse"><stop offset="0" style="stop-color:#d4d1d7;stop-opacity:0"/><stop offset="1" style="stop-color:#d4d1d7;stop-opacity:1"/></linearGradient><linearGradient id="d" x1="0" x2="1" y1="0" y2="0" gradientTransform="rotate(-125.587 9.705 .625) scale(4.18855)" gradientUnits="userSpaceOnUse"><stop offset="0" style="stop-color:#c3c0c7;stop-opacity:0"/><stop offset="1" style="stop-color:#bcb7c0;stop-opacity:1"/></linearGradient><linearGradient id="g" x1="0" x2="1" y1="0" y2="0" gradientTransform="rotate(180 8.188 5.853) scale(6.81247)" gradientUnits="userSpaceOnUse"><stop offset="0" style="stop-color:#706973;stop-opacity:1"/><stop offset="1" style="stop-color:#6b696d;stop-opacity:1"/></linearGradient><linearGradient id="h" x1="0" x2="1" y1="0" y2="0" gradientTransform="rotate(180 4.375 8.486) scale(3.3125)" gradientUnits="userSpaceOnUse"><stop offset="0" style="stop-color:#828183;stop-opacity:0"/><stop offset=".9" style="stop-color:#828183;stop-opacity:1"/><stop offset="1" style="stop-color:#828183;stop-opacity:1"/></linearGradient><linearGradient id="i" x1="0" x2="1" y1="0" y2="0" gradientTransform="translate(6.563 21.1) scale(13.75)" gradientUnits="userSpaceOnUse"><stop offset="0" style="stop-color:#e7a8a9;stop-opacity:1"/><stop offset="1" style="stop-color:#f3b9ad;stop-opacity:1"/></linearGradient><linearGradient id="k" x1="0" x2="1" y1="0" y2="0" gradientTransform="rotate(90 -3.706 20.269) scale(5.4375)" gradientUnits="userSpaceOnUse"><stop offset="0" style="stop-color:#d17dae;stop-opacity:0"/><stop offset=".43" style="stop-color:#d17dae;stop-opacity:0"/><stop offset="1" style="stop-color:#ad618f;stop-opacity:1"/></linearGradient><linearGradient id="l" x1="0" x2="1" y1="0" y2="0" gradientTransform="rotate(-90 20.269 3.706) scale(9.9375)" gradientUnits="userSpaceOnUse"><stop offset="0" style="stop-color:#de9e8f;stop-opacity:0"/><stop offset=".6" style="stop-color:#de9e8f;stop-opacity:0"/><stop offset="1" style="stop-color:#de9e8f;stop-opacity:1"/></linearGradient><linearGradient id="o" x1="0" x2="1" y1="0" y2="0" gradientTransform="rotate(180 6.375 7.25) scale(.8683)" gradientUnits="userSpaceOnUse"><stop offset="0" style="stop-color:#615154;stop-opacity:1"/><stop offset=".31" style="stop-color:#615154;stop-opacity:1"/><stop offset="1" style="stop-color:#392833;stop-opacity:1"/></linearGradient><linearGradient id="p" x1="0" x2="1" y1="0" y2="0" gradientTransform="rotate(-90 14.514 1.53) scale(1.4092)" gradientUnits="userSpaceOnUse"><stop offset="0" style="stop-color:#552d52;stop-opacity:1"/><stop offset="1" style="stop-color:#552d52;stop-opacity:0"/></linearGradient><linearGradient id="q" x1="0" x2="1" y1="0" y2="0" gradientTransform="translate(10.754 15.207) scale(.7975)" gradientUnits="userSpaceOnUse"><stop offset="0" style="stop-color:#594c4f;stop-opacity:1"/><stop offset="1" style="stop-color:#594c4f;stop-opacity:0"/></linearGradient><linearGradient id="r" x1="0" x2="1" y1="0" y2="0" gradientTransform="rotate(180 10.375 7.25) scale(.8683)" gradientUnits="userSpaceOnUse"><stop offset="0" style="stop-color:#594c4f;stop-opacity:1"/><stop offset=".23" style="stop-color:#594c4f;stop-opacity:1"/><stop offset="1" style="stop-color:#392833;stop-opacity:1"/></linearGradient><linearGradient id="s" x1="0" x2="1" y1="0" y2="0" gradientTransform="rotate(-90 18.514 -2.47) scale(1.4092)" gradientUnits="userSpaceOnUse"><stop offset="0" style="stop-color:#552d52;stop-opacity:1"/><stop offset="1" style="stop-color:#552d52;stop-opacity:0"/></linearGradient><linearGradient id="t" x1="0" x2="1" y1="0" y2="0" gradientTransform="translate(18.754 15.207) scale(1.0335)" gradientUnits="userSpaceOnUse"><stop offset="0" style="stop-color:#594c4f;stop-opacity:1"/><stop offset="1" style="stop-color:#594c4f;stop-opacity:0"/></linearGradient><linearGradient id="w" x1="0" x2="1" y1="0" y2="0" gradientTransform="rotate(90 7.886 9.89) scale(6.09576)" gradientUnits="userSpaceOnUse"><stop offset="0" style="stop-color:#f6d4ad;stop-opacity:1"/><stop offset="1" style="stop-color:#d9ae7f;stop-opacity:1"/></linearGradient><linearGradient id="x" x1="0" x2="1" y1="0" y2="0" gradientTransform="matrix(1.125 -2.57107 2.57107 1.125 13.094 8.444)" gradientUnits="userSpaceOnUse"><stop offset="0" style="stop-color:#cb9964;stop-opacity:1"/><stop offset="1" style="stop-color:#cb9964;stop-opacity:0"/></linearGradient><linearGradient id="z" x1="0" x2="1" y1="0" y2="0" gradientTransform="rotate(87.709 5.09 8.51) scale(5.47313)" gradientUnits="userSpaceOnUse"><stop offset="0" style="stop-color:#fff5e8;stop-opacity:1"/><stop offset="1" style="stop-color:#ffe3bf;stop-opacity:0"/></linearGradient><linearGradient id="A" x1="0" x2="1" y1="0" y2="0" gradientTransform="matrix(0 7.875 -7.875 0 21.625 -.15)" gradientUnits="userSpaceOnUse"><stop offset="0" style="stop-color:#f6d4ad;stop-opacity:1"/><stop offset="1" style="stop-color:#d9ae7f;stop-opacity:1"/></linearGradient><linearGradient id="B" x1="0" x2="1" y1="0" y2="0" gradientTransform="rotate(-141.069 12.497 -.248) scale(2.45044)" gradientUnits="userSpaceOnUse"><stop offset="0" style="stop-color:#cb9964;stop-opacity:1"/><stop offset="1" style="stop-color:#cb9964;stop-opacity:0"/></linearGradient><linearGradient id="C" x1="0" x2="1" y1="0" y2="0" gradientTransform="matrix(-.2188 5.46875 -5.46875 -.2188 20.236 3.084)" gradientUnits="userSpaceOnUse"><stop offset="0" style="stop-color:#fff5e8;stop-opacity:1"/><stop offset="1" style="stop-color:#ffe3bf;stop-opacity:0"/></linearGradient><linearGradient id="D" x1="0" x2="1" y1="0" y2="0" gradientTransform="matrix(0 6 -3 0 16 6)" gradientUnits="userSpaceOnUse"><stop offset="0" style="stop-color:#a24e26;stop-opacity:1"/><stop offset="1" style="stop-color:#7e2b11;stop-opacity:1"/></linearGradient><linearGradient id="E" x1="0" x2="1" y1="0" y2="0" gradientTransform="matrix(0 2 -.04688 0 6.5 24)" gradientUnits="userSpaceOnUse"><stop offset="0" style="stop-color:#eee;stop-opacity:1"/><stop offset="1" style="stop-color:#c2cbd4;stop-opacity:1"/></linearGradient><linearGradient id="F" x1="0" x2="1" y1="0" y2="0" gradientTransform="matrix(0 2 -.04688 0 6.5 24)" gradientUnits="userSpaceOnUse"><stop offset="0" style="stop-color:#d2dbe4;stop-opacity:1"/><stop offset="1" style="stop-color:#c2cbd4;stop-opacity:1"/></linearGradient><linearGradient id="G" x1="0" x2="1" y1="0" y2="0" gradientTransform="rotate(53.008 -6.841 22.266) scale(2.99793)" gradientUnits="userSpaceOnUse"><stop offset="0" style="stop-color:#e9a64d;stop-opacity:1"/><stop offset="1" style="stop-color:#da751a;stop-opacity:1"/></linearGradient><linearGradient id="H" x1="0" x2="1" y1="0" y2="0" gradientTransform="rotate(53.008 -6.841 22.266) scale(2.99793)" gradientUnits="userSpaceOnUse"><stop offset="0" style="stop-color:#e9a64d;stop-opacity:1"/><stop offset="1" style="stop-color:#da751a;stop-opacity:1"/></linearGradient><linearGradient id="I" x1="0" x2="1" y1="0" y2="0" gradientTransform="rotate(53.008 -6.841 22.266) scale(2.99793)" gradientUnits="userSpaceOnUse"><stop offset="0" style="stop-color:#e9a64d;stop-opacity:1"/><stop offset="1" style="stop-color:#da751a;stop-opacity:1"/></linearGradient><linearGradient id="J" x1="0" x2="1" y1="0" y2="0" gradientTransform="rotate(53.008 -6.841 22.266) scale(2.99793)" gradientUnits="userSpaceOnUse"><stop offset="0" style="stop-color:#e9a64d;stop-opacity:1"/><stop offset="1" style="stop-color:#da751a;stop-opacity:1"/></linearGradient><linearGradient id="K" x1="0" x2="1" y1="0" y2="0" gradientTransform="rotate(53.008 -6.841 22.266) scale(2.99793)" gradientUnits="userSpaceOnUse"><stop offset="0" style="stop-color:#e9a64d;stop-opacity:1"/><stop offset="1" style="stop-color:#da751a;stop-opacity:1"/></linearGradient><linearGradient id="L" x1="0" x2="1" y1="0" y2="0" gradientTransform="rotate(53.008 -6.841 22.266) scale(2.99793)" gradientUnits="userSpaceOnUse"><stop offset="0" style="stop-color:#e9a64d;stop-opacity:1"/><stop offset="1" style="stop-color:#da751a;stop-opacity:1"/></linearGradient><linearGradient id="M" x1="0" x2="1" y1="0" y2="0" gradientTransform="matrix(3 0 0 60.75 18 15)" gradientUnits="userSpaceOnUse"><stop offset="0" style="stop-color:#babbbc;stop-opacity:1"/><stop offset="1" style="stop-color:#c0c9d2;stop-opacity:0"/></linearGradient><linearGradient id="N" x1="0" x2="1" y1="0" y2="0" gradientTransform="matrix(3 0 0 60.75 18 15)" gradientUnits="userSpaceOnUse"><stop offset="0" style="stop-color:#babbbc;stop-opacity:1"/><stop offset="1" style="stop-color:#c0c9d2;stop-opacity:0"/></linearGradient><linearGradient id="P" x1="0" x2="1" y1="0" y2="0" gradientTransform="matrix(0 12 -81 0 16 1)" gradientUnits="userSpaceOnUse"><stop offset="0" style="stop-color:#dfe9f2;stop-opacity:1"/><stop offset="1" style="stop-color:#c0c9d2;stop-opacity:1"/></linearGradient><linearGradient id="Q" x1="0" x2="1" y1="0" y2="0" gradientTransform="rotate(53.008 -6.841 22.266) scale(2.99793)" gradientUnits="userSpaceOnUse"><stop offset="0" style="stop-color:#e9a64d;stop-opacity:1"/><stop offset="1" style="stop-color:#da751a;stop-opacity:1"/></linearGradient><linearGradient id="R" x1="0" x2="1" y1="0" y2="0" gradientTransform="rotate(53.008 -6.841 22.266) scale(2.99793)" gradientUnits="userSpaceOnUse"><stop offset="0" style="stop-color:#e9a64d;stop-opacity:1"/><stop offset="1" style="stop-color:#da751a;stop-opacity:1"/></linearGradient><linearGradient id="S" x1="0" x2="1" y1="0" y2="0" gradientTransform="rotate(53.008 -6.841 22.266) scale(2.99793)" gradientUnits="userSpaceOnUse"><stop offset="0" style="stop-color:#e9a64d;stop-opacity:1"/><stop offset="1" style="stop-color:#da751a;stop-opacity:1"/></linearGradient><radialGradient id="a" cx="0" cy="0" r="1" gradientTransform="matrix(0 1.0625 -4.52952 0 16 28.375)" gradientUnits="userSpaceOnUse"><stop offset="0" style="stop-color:#d04568;stop-opacity:1"/><stop offset="1" style="stop-color:#da6585;stop-opacity:1"/></radialGradient><radialGradient id="e" cx="0" cy="0" r="1" gradientTransform="matrix(3.8125 3.9375 -3.37081 3.2638 10.813 7.037)" gradientUnits="userSpaceOnUse"><stop offset="0" style="stop-color:#d4d1d7;stop-opacity:1"/><stop offset="1" style="stop-color:#d4d1d7;stop-opacity:0"/></radialGradient><radialGradient id="f" cx="0" cy="0" r="1" gradientTransform="matrix(.4375 -3.52506 4.075 .50576 20.875 10)" gradientUnits="userSpaceOnUse"><stop offset="0" style="stop-color:#8c8b8d;stop-opacity:1"/><stop offset="1" style="stop-color:#747474;stop-opacity:1"/></radialGradient><radialGradient id="j" cx="0" cy="0" r="1" gradientTransform="matrix(-.5625 9.8125 -20.7841 -1.19145 17.125 19.975)" gradientUnits="userSpaceOnUse"><stop offset="0" style="stop-color:#d17dae;stop-opacity:0"/><stop offset=".43" style="stop-color:#d17dae;stop-opacity:0"/><stop offset="1" style="stop-color:#ce79ad;stop-opacity:1"/></radialGradient><radialGradient id="m" cx="0" cy="0" r="1" gradientTransform="translate(12.344 21) scale(1.15625)" gradientUnits="userSpaceOnUse"><stop offset="0" style="stop-color:#ffa0a8;stop-opacity:1"/><stop offset="1" style="stop-color:#fe7883;stop-opacity:1"/></radialGradient><radialGradient id="n" cx="0" cy="0" r="1" gradientTransform="translate(18.484 21) scale(1.10938)" gradientUnits="userSpaceOnUse"><stop offset="0" style="stop-color:#ffa0a8;stop-opacity:1"/><stop offset="1" style="stop-color:#fe7883;stop-opacity:1"/></radialGradient><radialGradient id="u" cx="0" cy="0" r="1" gradientTransform="matrix(-.57862 -1.63534 1.58971 -.56248 20.292 14.68)" gradientUnits="userSpaceOnUse"><stop offset="0" style="stop-color:#594c4f;stop-opacity:0"/><stop offset=".81" style="stop-color:#594c4f;stop-opacity:0"/><stop offset="1" style="stop-color:#594c4f;stop-opacity:1"/></radialGradient><radialGradient id="v" cx="0" cy="0" r="1" gradientTransform="matrix(-.04533 4.66266 -4.48414 -.0436 22.271 19.326)" gradientUnits="userSpaceOnUse"><stop offset="0" style="stop-color:#ffd9cf;stop-opacity:1"/><stop offset="0" style="stop-color:#ffd9cf;stop-opacity:1"/><stop offset="1" style="stop-color:#ffd9cf;stop-opacity:0"/></radialGradient><radialGradient id="y" cx="0" cy="0" r="1" gradientTransform="matrix(-2.00001 -.79687 1.41862 -3.5605 13.281 4.662)" gradientUnits="userSpaceOnUse"><stop offset="0" style="stop-color:#cb9964;stop-opacity:0"/><stop offset=".69" style="stop-color:#cb9964;stop-opacity:0"/><stop offset="1" style="stop-color:#cb9964;stop-opacity:.75"/></radialGradient><radialGradient id="O" cx="0" cy="0" r="1" gradientTransform="matrix(4.79314 -1.62147 4.79314 1.62147 9.806 19.92)" gradientUnits="userSpaceOnUse"><stop offset="0" style="stop-color:#bb8d8b;stop-opacity:1"/><stop offset="1" style="stop-color:#ecaeab;stop-opacity:0"/></radialGradient></defs></svg>
